<svg width="210" height="63" viewBox="0 0 210 63" fill="none" xmlns="http://www.w3.org/2000/svg">
<g clip-path="url(#clip0)">
<path d="M7.46143 40.1897L17.6718 30.6113C17.8682 30.4138 17.9663 30.1176 17.8682 29.8213C17.77 29.5251 17.4755 29.3276 17.1809 29.3276H13.4502C13.2539 29.3276 13.0575 29.4264 12.9593 29.5251L4.2216 37.6223V21.6254C4.2216 21.2304 3.92707 20.8354 3.43619 20.8354H0.785414C0.392707 20.8354 0 21.1317 0 21.6254V51.0517C0 51.4467 0.29453 51.8417 0.785414 51.8417H3.53436C3.92707 51.8417 4.31978 51.5455 4.31978 51.0517V42.6583L13.5484 51.5455C13.6466 51.6442 13.8429 51.743 14.0393 51.743H17.6718C17.9663 51.743 18.2609 51.5455 18.359 51.2492C18.4572 50.953 18.359 50.6568 18.1627 50.4593L7.46143 40.1897Z" fill="black"/>
<path d="M40.4488 29.3276H37.6999C37.3072 29.3276 36.9144 29.6238 36.9144 30.1176V32.0925C34.9509 30.0188 32.3983 28.9326 29.2567 28.9326C26.115 28.9326 23.3661 30.1176 21.108 32.3887C18.8499 34.6599 17.77 37.4248 17.77 40.6834C17.77 43.942 18.8499 46.7069 21.108 48.9781C23.3661 51.2492 26.115 52.4342 29.2567 52.4342C32.3983 52.4342 34.9509 51.348 36.9144 49.2743V51.2492C36.9144 51.6442 37.209 52.0392 37.6999 52.0392H40.4488C40.8415 52.0392 41.2342 51.743 41.2342 51.2492V30.0188C41.136 29.6238 40.8415 29.3276 40.4488 29.3276ZM36.9144 40.5847C36.9144 42.6583 36.2272 44.4358 34.7546 46.0157C33.2819 47.4969 31.5147 48.1881 29.453 48.1881C27.2931 48.1881 25.6241 47.4969 24.1515 46.0157C22.6788 44.5345 21.9916 42.7571 21.9916 40.5847C21.9916 38.4122 22.6788 36.7336 24.1515 35.2524C25.6241 33.7712 27.3913 33.08 29.453 33.08C31.5147 33.08 33.2819 33.7712 34.7546 35.2524C36.2272 36.6348 36.9144 38.4122 36.9144 40.5847Z" fill="black"/>
<path d="M55.6662 28.9326C53.2118 28.9326 51.2482 29.7226 49.7756 31.2038V30.0188C49.7756 29.6238 49.4811 29.2289 48.9902 29.2289H46.2412C45.8485 29.2289 45.4558 29.5251 45.4558 30.0188V51.0517C45.4558 51.4467 45.7503 51.8417 46.2412 51.8417H49.0883C49.4811 51.8417 49.8738 51.5455 49.8738 51.0517V39.3997C49.8738 37.326 50.3646 35.7461 51.4446 34.6599C52.5245 33.6724 53.899 33.08 55.7644 33.08C56.1571 33.08 56.5498 32.7837 56.5498 32.29V29.6238C56.4516 29.3276 56.1571 28.9326 55.6662 28.9326Z" fill="black"/>
<path d="M71.5708 29.3276H66.2693V24.1928C66.2693 23.9953 66.1711 23.6991 65.9747 23.6003C65.7784 23.5016 65.582 23.4028 65.2875 23.5016L62.5386 24.3903C62.244 24.4891 62.0477 24.7853 62.0477 25.0815V29.4264H58.4151C58.0224 29.4264 57.6297 29.7226 57.6297 30.2163V32.8825C57.6297 33.2775 57.9243 33.6724 58.4151 33.6724H62.0477V45.4232C62.0477 48.0894 62.9313 49.9655 64.5021 50.953C65.582 51.6442 66.9565 51.9405 68.7237 51.9405C69.6073 51.9405 70.5891 51.8417 71.5708 51.743C71.9635 51.6442 72.1599 51.348 72.1599 51.0518V48.5831C72.1599 48.3856 72.0617 48.1881 71.9635 48.0894C71.8654 47.9906 71.669 47.8919 71.3745 47.8919C70.0982 47.9906 68.9201 47.9906 68.0365 47.9906C67.3492 47.9906 66.8583 47.7931 66.5638 47.4969C66.2693 47.2007 66.0729 46.5094 66.0729 45.522V33.4749H71.3745C71.7672 33.4749 72.1599 33.1787 72.1599 32.685V30.0188C72.2581 29.6239 71.9635 29.3276 71.5708 29.3276Z" fill="black"/>
<path d="M76.9706 20.8354C76.1852 20.8354 75.5961 21.1317 75.007 21.6254C74.5162 22.1191 74.2216 22.8104 74.2216 23.6003C74.2216 24.3903 74.5162 24.9828 75.007 25.5753C75.4979 26.069 76.1852 26.3652 76.9706 26.3652C77.756 26.3652 78.345 26.069 78.9341 25.5753C79.425 25.0815 79.7195 24.3903 79.7195 23.6003C79.7195 22.8104 79.425 22.2179 78.9341 21.6254C78.4432 21.1317 77.756 20.8354 76.9706 20.8354Z" fill="black"/>
<path d="M78.345 29.3276H75.5961C75.2034 29.3276 74.8107 29.6239 74.8107 30.1176V51.1505C74.8107 51.5455 75.1052 51.9405 75.5961 51.9405H78.345C78.7377 51.9405 79.1304 51.6443 79.1304 51.1505V30.0189C79.1304 29.6239 78.7377 29.3276 78.345 29.3276Z" fill="black"/>
<path d="M94.0533 28.834C91.5007 28.834 89.3408 29.624 87.77 31.2039V30.0189C87.77 29.624 87.4754 29.229 86.9846 29.229H84.2356C83.8429 29.229 83.4502 29.5252 83.4502 30.0189V51.0519C83.4502 51.4468 83.7447 51.8418 84.2356 51.8418H86.9846C87.3773 51.8418 87.77 51.5456 87.77 51.0519V40.091C87.77 37.7211 88.359 35.9437 89.439 34.7588C90.5189 33.5738 91.9916 32.9813 93.8569 32.9813C95.4278 32.9813 96.7041 33.3763 97.4895 34.265C98.3731 35.1537 98.7658 36.4374 98.7658 38.1161V51.0519C98.7658 51.4468 99.0603 51.8418 99.5512 51.8418H102.3C102.693 51.8418 103.086 51.5456 103.086 51.0519V38.1161C103.086 35.2525 102.3 32.9813 100.631 31.3026C98.9621 29.624 96.8022 28.834 94.0533 28.834Z" fill="black"/>
<path d="M128.612 29.3276H125.863C125.47 29.3276 125.077 29.6238 125.077 30.1176V32.0925C123.114 30.0188 120.561 28.9326 117.419 28.9326C114.278 28.9326 111.529 30.1176 109.271 32.3887C107.013 34.6599 105.933 37.4248 105.933 40.6834C105.933 43.942 107.013 46.7069 109.271 48.9781C111.529 51.2492 114.278 52.4342 117.419 52.4342C120.561 52.4342 123.114 51.348 125.077 49.2743V51.2492C125.077 51.6442 125.372 52.0392 125.863 52.0392H128.612C129.004 52.0392 129.397 51.743 129.397 51.2492V30.0188C129.397 29.6238 129.004 29.3276 128.612 29.3276ZM125.175 40.5847C125.175 42.6583 124.488 44.4358 123.015 46.0157C121.543 47.4969 119.776 48.1881 117.714 48.1881C115.554 48.1881 113.885 47.4969 112.412 46.0157C110.94 44.5345 110.252 42.7571 110.252 40.5847C110.252 38.4122 110.94 36.7336 112.412 35.2524C113.885 33.7712 115.652 33.08 117.714 33.08C119.776 33.08 121.543 33.7712 123.015 35.2524C124.39 36.6348 125.175 38.4122 125.175 40.5847Z" fill="black"/>
<path d="M208.92 11.6521C208.036 5.7273 204.011 1.67871 198.415 1.08624C185.259 -0.394956 159.439 -0.394956 146.283 1.08624C140.687 1.67871 136.662 5.7273 135.778 11.6521C134.208 21.4279 134.208 40.9797 135.778 51.2492C136.662 57.0753 140.687 61.1239 146.283 61.8151C152.861 62.605 162.581 63 172.398 63C182.118 63 191.935 62.605 198.513 61.8151C204.208 61.1239 208.233 57.0753 209.018 51.2492C210.393 40.9797 210.393 21.4279 208.92 11.6521ZM205.091 50.6568C204.502 54.7054 201.851 57.3715 198.022 57.8652C185.259 59.4452 159.439 59.4452 146.774 57.8652C142.945 57.3715 140.295 54.7054 139.607 50.6568C138.135 40.8809 138.135 21.5267 139.607 12.3433C140.295 8.19595 142.945 5.52981 146.676 5.13482C153.057 4.4436 162.679 4.04862 172.3 4.04862C181.921 4.04862 191.641 4.4436 197.924 5.13482C201.753 5.52981 204.404 8.2947 204.993 12.3433C206.367 21.5267 206.367 40.8809 205.091 50.6568Z" fill="white"/>
<path d="M147.854 46.1145C146.971 46.1145 146.283 46.4107 145.694 47.0032C145.105 47.5957 144.811 48.2869 144.811 49.1756C144.811 50.0643 145.105 50.7556 145.694 51.348C146.283 51.9405 146.971 52.2368 147.854 52.2368C148.738 52.2368 149.425 51.9405 150.014 51.348C150.603 50.7556 150.898 50.0643 150.898 49.1756C150.898 48.2869 150.603 47.5957 150.014 47.0032C149.425 46.4107 148.738 46.1145 147.854 46.1145Z" fill="white"/>
<path d="M166.9 29.3276H161.599V24.1928C161.599 23.9953 161.501 23.6991 161.304 23.6003C161.108 23.5016 160.912 23.4028 160.617 23.5016L157.868 24.3903C157.574 24.4891 157.377 24.7853 157.377 25.0815V29.4264H153.745C153.352 29.4264 152.959 29.7226 152.959 30.2163V32.8825C152.959 33.2775 153.254 33.6724 153.745 33.6724H157.377V45.4232C157.377 48.0894 158.261 49.9655 159.832 50.953C160.912 51.6442 162.286 51.9405 164.053 51.9405C164.937 51.9405 165.919 51.8417 166.9 51.743C167.293 51.6442 167.489 51.348 167.489 51.0518V48.5831C167.489 48.3856 167.391 48.1881 167.293 48.0894C167.195 47.9906 166.999 47.8919 166.704 47.8919C165.428 47.9906 164.25 47.9906 163.366 47.9906C162.679 47.9906 162.188 47.7931 161.893 47.4969C161.599 47.2007 161.403 46.5094 161.403 45.522V33.4749H166.704C167.097 33.4749 167.489 33.1787 167.489 32.685V30.0188C167.588 29.6239 167.293 29.3276 166.9 29.3276Z" fill="white"/>
<path d="M190.168 29.3276H187.223C186.928 29.3276 186.634 29.5251 186.536 29.8214L179.958 46.2132L173.38 29.8214C173.282 29.5251 172.987 29.3276 172.693 29.3276H169.748C169.453 29.3276 169.257 29.4264 169.158 29.6239C169.06 29.8214 168.962 30.1176 169.06 30.3151L177.602 51.348C177.7 51.6443 177.994 51.8417 178.289 51.8417H181.627C181.921 51.8417 182.216 51.6443 182.314 51.348L190.856 30.3151C190.954 30.1176 190.954 29.8214 190.757 29.6239C190.659 29.4264 190.463 29.3276 190.168 29.3276Z" fill="white"/>
</g>
<defs>
<clipPath id="clip0">
<rect width="210" height="63" fill="white"/>
</clipPath>
</defs>
</svg>
